<svg width="800" height="250" viewBox="0 0 800 250" xmlns="http://www.w3.org/2000/svg">
    <style>
        .text { font-family: 'Courier New', Courier, monospace; fill: #00ff41; }
        .header { font-weight: bold; font-size: 16px; }
        .label { font-size: 12px; fill: #008f11; }
        .value { font-size: 14px; font-weight: bold; }
        .panel { fill: #161b22; stroke: #003300; stroke-width: 1; }
    </style>
    
    <rect width="800" height="250" fill="#0d1117" rx="8" />
    
    <rect x="20" y="20" width="760" height="210" class="panel" rx="4"/>
    <text x="35" y="45" class="text header">&gt; SKILL_SPECTRUM_ANALYSIS</text>
    
    
        <text x="50" y="80" class="label">PYTHON</text>
        <rect x="150" y="70" width="200" height="14" fill="#003300"/>
        <rect x="150" y="70" width="132.48227690483665" height="14" fill="#00ff41"/>
        <text x="360" y="80" class="text value">53.0%</text>
        
        <text x="50" y="120" class="label">TYPESCRIPT</text>
        <rect x="150" y="110" width="200" height="14" fill="#003300"/>
        <rect x="150" y="110" width="62.838378597065464" height="14" fill="#00ff41"/>
        <text x="360" y="120" class="text value">25.1%</text>
        
        <text x="50" y="160" class="label">DART</text>
        <rect x="150" y="150" width="200" height="14" fill="#003300"/>
        <rect x="150" y="150" width="32.645584885065794" height="14" fill="#00ff41"/>
        <text x="360" y="160" class="text value">13.1%</text>
        
        <text x="420" y="80" class="label">JAVASCRIPT</text>
        <rect x="520" y="70" width="200" height="14" fill="#003300"/>
        <rect x="520" y="70" width="15.927933487089305" height="14" fill="#00ff41"/>
        <text x="730" y="80" class="text value">6.4%</text>
        
        <text x="420" y="120" class="label">KOTLIN</text>
        <rect x="520" y="110" width="200" height="14" fill="#003300"/>
        <rect x="520" y="110" width="4.514085294983738" height="14" fill="#00ff41"/>
        <text x="730" y="120" class="text value">1.8%</text>
        
        <text x="420" y="160" class="label">PLPGSQL</text>
        <rect x="520" y="150" width="200" height="14" fill="#003300"/>
        <rect x="520" y="150" width="1.014467438763023" height="14" fill="#00ff41"/>
        <text x="730" y="160" class="text value">0.4%</text>
        </svg>