<svg width="900" height="340" viewBox="0 0 900 340" xmlns="http://www.w3.org/2000/svg">
  <defs>
    <filter id="neon">
      <feGaussianBlur stdDeviation="2.5" result="blur"/>
      <feMerge>
        <feMergeNode in="blur"/>
        <feMergeNode in="SourceGraphic"/>
      </feMerge>
    </filter>
    <linearGradient id="panel" x1="0" y1="0" x2="1" y2="1">
      <stop offset="0%" stop-color="#101820"/>
      <stop offset="100%" stop-color="#07110b"/>
    </linearGradient>
  </defs>
  <rect width="900" height="340" rx="8" fill="#0d1117"/>
  <rect x="18" y="18" width="864" height="304" rx="6" fill="url(#panel)" stroke="#00FF41" stroke-opacity="0.35"/>
  <text x="42" y="52" font-family="Courier New, monospace" font-size="18" font-weight="700" fill="#00FF41" filter="url(#neon)">&gt; LANGUAGE_MATRIX</text>
  <text x="42" y="76" font-family="Courier New, monospace" font-size="12" fill="#7CFF6B">Weekly public-repo language snapshot. Distinct green slices, no noisy README rewrites.</text>
  <g transform="translate(35 10)">
    <path d="M 220 170 L 220.00 62.00 A 108 108 0 1 1 174.27 267.84 Z" fill="#00FF41" stroke="#0d1117" stroke-width="3"/><path d="M 220 170 L 174.27 267.84 A 108 108 0 0 1 114.09 148.86 Z" fill="#B6FF00" stroke="#0d1117" stroke-width="3"/><path d="M 220 170 L 114.09 148.86 A 108 108 0 0 1 178.11 70.45 Z" fill="#00E676" stroke="#0d1117" stroke-width="3"/><path d="M 220 170 L 178.11 70.45 A 108 108 0 0 1 202.55 63.42 Z" fill="#00BFA5" stroke="#0d1117" stroke-width="3"/><path d="M 220 170 L 202.55 63.42 A 108 108 0 0 1 216.88 62.04 Z" fill="#00A000" stroke="#0d1117" stroke-width="3"/><path d="M 220 170 L 216.88 62.04 A 108 108 0 0 1 220.00 62.00 Z" fill="#005F2F" stroke="#0d1117" stroke-width="3"/>
    <circle cx="220" cy="170" r="55" fill="#0d1117" stroke="#00FF41" stroke-opacity="0.45"/>
    <text x="220" y="164" font-family="Courier New, monospace" font-size="12" fill="#7CFF6B" text-anchor="middle">TOP</text>
    <text x="220" y="187" font-family="Courier New, monospace" font-size="21" font-weight="700" fill="#00FF41" text-anchor="middle">6</text>
  </g>
  <g font-family="Courier New, monospace">
    <g transform="translate(455 105)">
      <rect width="18" height="18" rx="2" fill="#00FF41"/>
      <text x="30" y="14" font-size="14" fill="#D7FFE0">Python</text>
      <text x="250" y="14" font-size="14" fill="#00FF41" text-anchor="end">57.0%</text>
    </g><g transform="translate(455 140)">
      <rect width="18" height="18" rx="2" fill="#B6FF00"/>
      <text x="30" y="14" font-size="14" fill="#D7FFE0">TypeScript</text>
      <text x="250" y="14" font-size="14" fill="#B6FF00" text-anchor="end">21.2%</text>
    </g><g transform="translate(455 175)">
      <rect width="18" height="18" rx="2" fill="#00E676"/>
      <text x="30" y="14" font-size="14" fill="#D7FFE0">Dart</text>
      <text x="250" y="14" font-size="14" fill="#00E676" text-anchor="end">15.5%</text>
    </g><g transform="translate(455 210)">
      <rect width="18" height="18" rx="2" fill="#00BFA5"/>
      <text x="30" y="14" font-size="14" fill="#D7FFE0">JavaScript</text>
      <text x="250" y="14" font-size="14" fill="#00BFA5" text-anchor="end">3.8%</text>
    </g><g transform="translate(455 245)">
      <rect width="18" height="18" rx="2" fill="#00A000"/>
      <text x="30" y="14" font-size="14" fill="#D7FFE0">Kotlin</text>
      <text x="250" y="14" font-size="14" fill="#00A000" text-anchor="end">2.1%</text>
    </g><g transform="translate(715 245)">
      <rect width="18" height="18" rx="2" fill="#005F2F"/>
      <text x="30" y="14" font-size="14" fill="#D7FFE0">CSS</text>
      <text x="250" y="14" font-size="14" fill="#005F2F" text-anchor="end">0.5%</text>
    </g>
  </g>
  <text x="42" y="302" font-family="Courier New, monospace" font-size="11" fill="#7CFF6B">Updated weekly from GitHub API: 2026-06-04</text>
</svg>
