<svg width="800" height="420" viewBox="0 0 800 420" xmlns="http://www.w3.org/2000/svg">
    <style>
        .text { font-family: 'Courier New', Courier, monospace; fill: #00ff41; }
        .text-dim { font-family: 'Courier New', Courier, monospace; fill: #005500; }
        .header { font-weight: bold; font-size: 16px; }
        .label { font-size: 12px; fill: #008f11; }
        .value { font-size: 14px; font-weight: bold; }
        .panel { fill: #161b22; stroke: #003300; stroke-width: 1; }
        
        /* Glitch Effect on Name */
        @keyframes glitch {
            0% { transform: translate(0) }
            20% { transform: translate(-2px, 2px) }
            40% { transform: translate(-2px, -2px) }
            60% { transform: translate(2px, 2px) }
            80% { transform: translate(2px, -2px) }
            100% { transform: translate(0) }
        }
        .glitch { animation: glitch 3s infinite; }
    </style>
    
    <rect width="800" height="420" fill="#0d1117" rx="8" />
    
    <!-- Top Bar -->
    <rect x="10" y="10" width="780" height="30" fill="#003300" opacity="0.3" rx="4"/>
    <text x="20" y="30" class="text header">[ SYSTEM MONITOR: MSRISHAV-28 ]</text>
    <text x="780" y="30" class="text header" text-anchor="end">[ STATUS: CONNECTED ]</text>
    
    <!-- Panel 1: Core Metrics (Left) -->
    <rect x="20" y="60" width="370" height="200" class="panel" rx="4"/>
    <text x="35" y="85" class="text header">&gt; CORE_METRICS</text>
    
    <!-- Stars -->
    <text x="35" y="115" class="label">TOTAL STARS</text>
    <rect x="160" y="105" width="200" height="12" fill="#003300"/>
    <rect x="160" y="105" width="0" height="12" fill="#00ff41"/>
    <text x="375" y="115" class="text value" text-anchor="end">0</text>
    
    <!-- Repos -->
    <text x="35" y="145" class="label">PUBLIC REPOS</text>
    <rect x="160" y="135" width="200" height="12" fill="#003300"/>
    <rect x="160" y="135" width="200" height="12" fill="#00ff41"/>
    <text x="375" y="145" class="text value" text-anchor="end">46</text>
    
    <!-- Forks -->
    <text x="35" y="175" class="label">FORKS</text>
    <rect x="160" y="165" width="200" height="12" fill="#003300"/>
    <rect x="160" y="165" width="0" height="12" fill="#00ff41"/>
    <text x="375" y="175" class="text value" text-anchor="end">0</text>
    
    <!-- Followers -->
    <text x="35" y="205" class="label">FOLLOWERS</text>
    <rect x="160" y="195" width="200" height="12" fill="#003300"/>
    <rect x="160" y="195" width="14" height="12" fill="#00ff41"/>
    <text x="375" y="205" class="text value" text-anchor="end">7</text>
    
    <!-- Total Contribs -->
    <text x="35" y="235" class="label">PACKET_SEND</text>
    <text x="160" y="235" class="text value">469 (Total Contribs)</text>
    
    <!-- Panel 2: Tech Stack (Right) -->
    <rect x="410" y="60" width="370" height="200" class="panel" rx="4"/>
    <text x="425" y="85" class="text header">&gt; SKILL_SPECTRUM</text>
    
    
        <text x="425" y="115" class="label">PYTHON</text>
        <rect x="520" y="105" width="180" height="12" fill="#003300"/>
        <rect x="520" y="105" width="107.68324274544386" height="12" fill="#00ff41"/>
        <text x="710" y="115" class="text value">59.8%</text>
        
        <text x="425" y="145" class="label">TYPESCRIPT</text>
        <rect x="520" y="135" width="180" height="12" fill="#003300"/>
        <rect x="520" y="135" width="51.865508524996045" height="12" fill="#00ff41"/>
        <text x="710" y="145" class="text value">28.8%</text>
        
        <text x="425" y="175" class="label">JAVASCRIPT</text>
        <rect x="520" y="165" width="180" height="12" fill="#003300"/>
        <rect x="520" y="165" width="14.882479104585622" height="12" fill="#00ff41"/>
        <text x="710" y="175" class="text value">8.3%</text>
        
        <text x="425" y="205" class="label">KOTLIN</text>
        <rect x="520" y="195" width="180" height="12" fill="#003300"/>
        <rect x="520" y="195" width="3.8821121419793054" height="12" fill="#00ff41"/>
        <text x="710" y="205" class="text value">2.2%</text>
        
        <text x="425" y="235" class="label">PLPGSQL</text>
        <rect x="520" y="225" width="180" height="12" fill="#003300"/>
        <rect x="520" y="225" width="1.2031634354104186" height="12" fill="#00ff41"/>
        <text x="710" y="235" class="text value">0.7%</text>
        
        <text x="425" y="265" class="label">BATCHFILE</text>
        <rect x="520" y="255" width="180" height="12" fill="#003300"/>
        <rect x="520" y="255" width="0.3578814025528558" height="12" fill="#00ff41"/>
        <text x="710" y="265" class="text value">0.2%</text>
        
    
    <!-- Panel 3: System Log (Bottom) -->
    <rect x="20" y="280" width="760" height="120" class="panel" rx="4"/>
    <text x="35" y="305" class="text header">&gt; SYSTEM_LOG</text>
    
    <text x="35" y="335" class="text value">User: msrishav-28</text>
    <text x="35" y="355" class="text value">Init: 2024</text>
    <text x="35" y="375" class="text value">Time: 2026-02-01 06:55:53</text>
    
    <text x="300" y="335" class="text value">Current Streak: 2 Days</text>
    <text x="300" y="355" class="text value">Longest Streak: 8 Days</text>
    
    <text x="600" y="350" class="text header glitch" font-size="20">THE ONE</text>
    
    </svg>
    