<svg width="450" height="300" xmlns="http://www.w3.org/2000/svg">
    <rect width="450" height="300" fill="#0d1117" rx="10"/>
    
    <!-- Title -->
    <text x="225" y="30" font-family="'Courier New', monospace" font-size="18" fill="#00ff41" text-anchor="middle" font-weight="bold">
        MATRIX LANGUAGES
    </text>
    
    <!-- Mini Octocat in corner -->
    <g transform="translate(410, 270) scale(0.5)">
        <g id="green-octocat">
    <!-- Octocat Head -->
    <circle cx="0" cy="0" r="28" fill="#00ff41" opacity="0.9"/>
    
    <!-- Ears -->
    <ellipse cx="-18" cy="-15" rx="8" ry="10" fill="#00ff41" opacity="0.9"/>
    <ellipse cx="18" cy="-15" rx="8" ry="10" fill="#00ff41" opacity="0.9"/>
    
    <!-- Eyes -->
    <ellipse cx="-10" cy="-3" rx="5" ry="8" fill="#0d1117"/>
    <ellipse cx="10" cy="-3" rx="5" ry="8" fill="#0d1117"/>
    
    <!-- Pupils with glow -->
    <circle cx="-10" cy="-2" r="3" fill="#00ff41">
        <animate attributeName="opacity" values="1;0.5;1" dur="3s" repeatCount="indefinite"/>
    </circle>
    <circle cx="10" cy="-2" r="3" fill="#00ff41">
        <animate attributeName="opacity" values="1;0.5;1" dur="3s" repeatCount="indefinite"/>
    </circle>
    
    <!-- Nose -->
    <ellipse cx="0" cy="5" rx="3" ry="2" fill="#00cc33"/>
    
    <!-- Smile -->
    <path d="M -8 10 Q 0 15 8 10" stroke="#0d1117" stroke-width="2" fill="none" stroke-linecap="round"/>
    
    <!-- Whiskers -->
    <line x1="-28" y1="2" x2="-15" y2="3" stroke="#00cc33" stroke-width="1.5"/>
    <line x1="-28" y1="8" x2="-15" y2="7" stroke="#00cc33" stroke-width="1.5"/>
    <line x1="28" y1="2" x2="15" y2="3" stroke="#00cc33" stroke-width="1.5"/>
    <line x1="28" y1="8" x2="15" y2="7" stroke="#00cc33" stroke-width="1.5"/>
    
    <!-- Glow effect -->
    <circle cx="0" cy="0" r="30" fill="none" stroke="#00ff41" stroke-width="1" opacity="0.3">
        <animate attributeName="r" values="30;32;30" dur="2s" repeatCount="indefinite"/>
        <animate attributeName="opacity" values="0.3;0.1;0.3" dur="2s" repeatCount="indefinite"/>
    </circle>
</g>
    </g>
    
    <!-- Pie Chart -->
    <path d="M 150 150 L 150.00013267948967 50.00000000008802 A 100 100 0 0 1 202.64328928007694 235.02166837797373 Z" 
              fill="#00ff41" opacity="0.9"/>
    <path d="M 150 150 L 202.64328928007694 235.02166837797373 A 100 100 0 0 1 53.81750189437852 177.366531715987 Z" 
              fill="#00cc33" opacity="0.9"/>
    <path d="M 150 150 L 53.81750189437852 177.366531715987 A 100 100 0 0 1 82.63018762354609 76.09933437132383 Z" 
              fill="#009929" opacity="0.9"/>
    <path d="M 150 150 L 82.63018762354609 76.09933437132383 A 100 100 0 0 1 125.60826215671676 53.02039840778606 Z" 
              fill="#33ff66" opacity="0.9"/>
    <path d="M 150 150 L 125.60826215671676 53.02039840778606 A 100 100 0 0 1 137.71078623944112 50.757996669014744 Z" 
              fill="#00661a" opacity="0.9"/>
    <path d="M 150 150 L 137.71078623944112 50.757996669014744 A 100 100 0 0 1 149.99960196153094 50.000000000792184 Z" 
              fill="#66ff8c" opacity="0.9"/>
    <rect x="310" y="60" width="15" height="15" fill="#00ff41" rx="2"/>
    <text x="332" y="72" font-family="'Courier New', monospace" font-size="12" fill="#00ff41">
        Python
    </text>
    <text x="410" y="72" font-family="'Courier New', monospace" font-size="11" fill="#009929" text-anchor="end">
        41.2%
    </text>
    <rect x="310" y="95" width="15" height="15" fill="#00cc33" rx="2"/>
    <text x="332" y="107" font-family="'Courier New', monospace" font-size="12" fill="#00ff41">
        TypeScript
    </text>
    <text x="410" y="107" font-family="'Courier New', monospace" font-size="11" fill="#009929" text-anchor="end">
        29.4%
    </text>
    <rect x="310" y="130" width="15" height="15" fill="#009929" rx="2"/>
    <text x="332" y="142" font-family="'Courier New', monospace" font-size="12" fill="#00ff41">
        JavaScript
    </text>
    <text x="410" y="142" font-family="'Courier New', monospace" font-size="11" fill="#009929" text-anchor="end">
        17.6%
    </text>
    <rect x="310" y="165" width="15" height="15" fill="#33ff66" rx="2"/>
    <text x="332" y="177" font-family="'Courier New', monospace" font-size="12" fill="#00ff41">
        HTML
    </text>
    <text x="410" y="177" font-family="'Courier New', monospace" font-size="11" fill="#009929" text-anchor="end">
        7.8%
    </text>
    <rect x="310" y="200" width="15" height="15" fill="#00661a" rx="2"/>
    <text x="332" y="212" font-family="'Courier New', monospace" font-size="12" fill="#00ff41">
        Kotlin
    </text>
    <text x="410" y="212" font-family="'Courier New', monospace" font-size="11" fill="#009929" text-anchor="end">
        2.0%
    </text>
    <rect x="310" y="235" width="15" height="15" fill="#66ff8c" rx="2"/>
    <text x="332" y="247" font-family="'Courier New', monospace" font-size="12" fill="#00ff41">
        Jupyter Notebook
    </text>
    <text x="410" y="247" font-family="'Courier New', monospace" font-size="11" fill="#009929" text-anchor="end">
        2.0%
    </text>
</svg>