<svg width="450" height="300" xmlns="http://www.w3.org/2000/svg">
    <rect width="450" height="300" fill="#0d1117" rx="10"/>
    
    <!-- Title -->
    <text x="225" y="30" font-family="'Courier New', monospace" font-size="18" fill="#00ff41" text-anchor="middle" font-weight="bold">
        MATRIX LANGUAGES
    </text>
    
    <!-- Pie Chart -->
    <path d="M 150 150 L 150.00013267948967 50.00000000008802 A 100 100 0 0 1 178.1733598427939 245.94926677764894 Z" 
              fill="#00ff41" opacity="0.9"/>
    <path d="M 150 150 L 178.1733598427939 245.94926677764894 A 100 100 0 0 1 51.017891860175396 164.23173454629008 Z" 
              fill="#00cc33" opacity="0.9"/>
    <path d="M 150 150 L 51.017891860175396 164.23173454629008 A 100 100 0 0 1 59.036675198934645 108.45877299433864 Z" 
              fill="#009929" opacity="0.9"/>
    <path d="M 150 150 L 59.036675198934645 108.45877299433864 A 100 100 0 0 1 95.9356239915353 65.87483582889513 Z" 
              fill="#33ff66" opacity="0.9"/>
    <path d="M 150 150 L 95.9356239915353 65.87483582889513 A 100 100 0 0 1 149.99960196153114 50.000000000792184 Z" 
              fill="#00661a" opacity="0.9"/>
    <rect x="310" y="60" width="15" height="15" fill="#00ff41" rx="2"/>
    <text x="332" y="72" font-family="'Courier New', monospace" font-size="12" fill="#00ff41">
        C
    </text>
    <text x="410" y="72" font-family="'Courier New', monospace" font-size="11" fill="#009929" text-anchor="end">
        45.5%
    </text>
    <rect x="310" y="95" width="15" height="15" fill="#00cc33" rx="2"/>
    <text x="332" y="107" font-family="'Courier New', monospace" font-size="12" fill="#00ff41">
        Shell
    </text>
    <text x="410" y="107" font-family="'Courier New', monospace" font-size="11" fill="#009929" text-anchor="end">
        27.3%
    </text>
    <rect x="310" y="130" width="15" height="15" fill="#009929" rx="2"/>
    <text x="332" y="142" font-family="'Courier New', monospace" font-size="12" fill="#00ff41">
        JavaScript
    </text>
    <text x="410" y="142" font-family="'Courier New', monospace" font-size="11" fill="#009929" text-anchor="end">
        9.1%
    </text>
    <rect x="310" y="165" width="15" height="15" fill="#33ff66" rx="2"/>
    <text x="332" y="177" font-family="'Courier New', monospace" font-size="12" fill="#00ff41">
        Perl
    </text>
    <text x="410" y="177" font-family="'Courier New', monospace" font-size="11" fill="#009929" text-anchor="end">
        9.1%
    </text>
    <rect x="310" y="200" width="15" height="15" fill="#00661a" rx="2"/>
    <text x="332" y="212" font-family="'Courier New', monospace" font-size="12" fill="#00ff41">
        C++
    </text>
    <text x="410" y="212" font-family="'Courier New', monospace" font-size="11" fill="#009929" text-anchor="end">
        9.1%
    </text>
</svg>