<svg width="800" height="250" viewBox="0 0 800 250" xmlns="http://www.w3.org/2000/svg">
    <style>
        .text { font-family: 'Courier New', Courier, monospace; fill: #00ff41; }
        .header { font-weight: bold; font-size: 16px; }
        .label { font-size: 12px; fill: #008f11; }
        .value { font-size: 14px; font-weight: bold; }
        .panel { fill: #161b22; stroke: #003300; stroke-width: 1; }
    </style>
    
    <rect width="800" height="250" fill="#0d1117" rx="8" />
    
    <rect x="20" y="20" width="760" height="210" class="panel" rx="4"/>
    <text x="35" y="45" class="text header">&gt; SKILL_SPECTRUM_ANALYSIS</text>
    
    
        <text x="50" y="80" class="label">PYTHON</text>
        <rect x="150" y="70" width="200" height="14" fill="#003300"/>
        <rect x="150" y="70" width="148.98009669017142" height="14" fill="#00ff41"/>
        <text x="360" y="80" class="text value">59.6%</text>
        
        <text x="50" y="120" class="label">TYPESCRIPT</text>
        <rect x="150" y="110" width="200" height="14" fill="#003300"/>
        <rect x="150" y="110" width="74.53918120468634" height="14" fill="#00ff41"/>
        <text x="360" y="120" class="text value">29.8%</text>
        
        <text x="50" y="160" class="label">JAVASCRIPT</text>
        <rect x="150" y="150" width="200" height="14" fill="#003300"/>
        <rect x="150" y="150" width="19.403687953031355" height="14" fill="#00ff41"/>
        <text x="360" y="160" class="text value">7.8%</text>
        
        <text x="420" y="80" class="label">KOTLIN</text>
        <rect x="520" y="70" width="200" height="14" fill="#003300"/>
        <rect x="520" y="70" width="5.3141774823539" height="14" fill="#00ff41"/>
        <text x="730" y="80" class="text value">2.1%</text>
        
        <text x="420" y="120" class="label">PLPGSQL</text>
        <rect x="520" y="110" width="200" height="14" fill="#003300"/>
        <rect x="520" y="110" width="1.1010073757237158" height="14" fill="#00ff41"/>
        <text x="730" y="120" class="text value">0.4%</text>
        
        <text x="420" y="160" class="label">BATCHFILE</text>
        <rect x="520" y="150" width="200" height="14" fill="#003300"/>
        <rect x="520" y="150" width="0.4898996271215279" height="14" fill="#00ff41"/>
        <text x="730" y="160" class="text value">0.2%</text>
        </svg>