<svg width="495" height="195" xmlns="http://www.w3.org/2000/svg">
    <defs>
        <linearGradient id="matrixGradient" x1="0%" y1="0%" x2="100%" y2="100%">
            <stop offset="0%" style="stop-color:#009929;stop-opacity:0.1" />
            <stop offset="100%" style="stop-color:#00ff41;stop-opacity:0.1" />
        </linearGradient>
    </defs>
    
    <rect width="495" height="195" fill="#0d1117" rx="10"/>
    <rect width="495" height="195" fill="url(#matrixGradient)" rx="10"/>
    
    <!-- Title -->
    <text x="247" y="30" font-family="'Courier New', monospace" font-size="18" fill="#00ff41" text-anchor="middle" font-weight="bold">
        &gt; MATRIX STATISTICS
    </text>
    
    <!-- Stats Grid -->
    <!-- Total Repos -->
    <text x="30" y="70" font-family="'Courier New', monospace" font-size="14" fill="#009929">
        Public Repos
    </text>
    <text x="30" y="95" font-family="'Courier New', monospace" font-size="32" fill="#00ff41" font-weight="bold">
        56
    </text>
    
    <!-- Total Stars -->
    <text x="160" y="70" font-family="'Courier New', monospace" font-size="14" fill="#009929">
        Total Stars
    </text>
    <text x="160" y="95" font-family="'Courier New', monospace" font-size="32" fill="#00ff41" font-weight="bold">
        0
    </text>
    
    <!-- Total Forks -->
    <text x="290" y="70" font-family="'Courier New', monospace" font-size="14" fill="#009929">
        Total Forks
    </text>
    <text x="290" y="95" font-family="'Courier New', monospace" font-size="32" fill="#00ff41" font-weight="bold">
        0
    </text>
    
    <!-- Followers -->
    <text x="30" y="130" font-family="'Courier New', monospace" font-size="14" fill="#009929">
        Followers
    </text>
    <text x="30" y="155" font-family="'Courier New', monospace" font-size="32" fill="#00ff41" font-weight="bold">
        6
    </text>
    
    <!-- Green Octocat -->
    <g transform="translate(380, 110)">
        <path d="M0-30c-8.3 0-15 6.7-15 15 0 6.6 4.3 12.2 10.3 14.2.8.1 1-.3 1-.7v-2.6c-4.2.9-5.1-2-5.1-2-.7-1.7-1.7-2.2-1.7-2.2-1.4-.9.1-.9.1-.9 1.5.1 2.3 1.5 2.3 1.5 1.3 2.3 3.5 1.6 4.4 1.2.1-1 .5-1.6 1-2-3.3-.4-6.8-1.7-6.8-7.4 0-1.6.6-3 1.5-4-.2-.4-.7-1.9.1-4 0 0 1.3-.4 4.1 1.5 1.2-.3 2.5-.5 3.8-.5s2.6.2 3.8.5c2.9-1.9 4.1-1.5 4.1-1.5.8 2.1.3 3.6.1 4 1 1 1.5 2.4 1.5 4 0 5.8-3.5 7-6.8 7.4.5.5 1 1.4 1 2.8v4.1c0 .4.3.9 1 .7 6-2 10.2-7.6 10.2-14.2C15-23.3 8.3-30 0-30z" 
              fill="#00ff41"/>
    </g>
    
    <!-- Matrix Code Background -->
    <text x="420" y="40" font-family="'Courier New', monospace" font-size="8" fill="#00661a" opacity="0.3">
        010101
    </text>
    <text x="440" y="60" font-family="'Courier New', monospace" font-size="8" fill="#009929" opacity="0.3">
        110011
    </text>
    <text x="430" y="80" font-family="'Courier New', monospace" font-size="8" fill="#00661a" opacity="0.3">
        101010
    </text>
    
    <!-- Footer -->
    <text x="247" y="185" font-family="'Courier New', monospace" font-size="10" fill="#009929" text-anchor="middle">
        Generated: 2025-11-25 19:43 UTC
    </text>
</svg>